# xmcd
#
# Track frame offsets:
#	150
#	77544
#	99642
#	130098
#	191107
#	212159
#	248634
#	250084
#
# Disc length: 3729 seconds
#
# Revision: 0
# Processed by: cddbd v1.4PL0 Copyright (c) Steve Scherf et al.
# Submitted via: dBpowerAMP V4.0
#
DISCID=660e8f08
DTITLE=Speargrass - Hogs Head McDunnas
DYEAR=2002
DGENRE=Bluegrass
TTITLE0=Suitcoat and Neckties
TTITLE1=Jack's Jam
TTITLE2=Diamond Epiphany
TTITLE3=Fire on the Bayou
TTITLE4=Dem Blues
TTITLE5=Creeper
TTITLE6=It's All Over Now
TTITLE7=Carbon Sheriff
EXTD=
EXTT0=
EXTT1=
EXTT2=
EXTT3=
EXTT4=
EXTT5=
EXTT6=
EXTT7=
PLAYORDER=
